<?xml version="1.0" encoding="utf-8"?>
<!-- Generator: Adobe Illustrator 27.6.1, SVG Export Plug-In . SVG Version: 6.00 Build 0)  -->
<svg version="1.1" id="Logo_AROVIA" xmlns="http://www.w3.org/2000/svg" xmlns:xlink="http://www.w3.org/1999/xlink" x="0px"
	 y="0px" viewBox="0 0 499.3 354.6" style="enable-background:new 0 0 499.3 354.6;" xml:space="preserve">
<style type="text/css">
	.st0{fill:url(#SVGID_1_);}
	.st1{fill:url(#SVGID_00000120535525607608450610000011021602726265782449_);}
	.st2{fill:url(#SVGID_00000092421839355952883780000009980907562325387450_);}
	.st3{fill:#21893C;}
	.st4{fill:url(#SVGID_00000088836988802920978670000016055847885630607511_);}
	.st5{fill:url(#SVGID_00000031918909390069329650000010381002638696525202_);}
	.st6{fill:url(#SVGID_00000000919061782258504630000004089512861089260169_);}
	.st7{fill:url(#SVGID_00000023281281818255301040000009709692311791386811_);}
	.st8{fill:url(#SVGID_00000065074339358125438210000016883882128617267845_);}
	.st9{fill:url(#SVGID_00000049212352277424931620000009988577402722579388_);}
	.st10{fill:url(#SVGID_00000173842210315231062080000002126756873223464888_);}
	.st11{fill:url(#SVGID_00000172439705740772776600000018082315079601194419_);}
	.st12{fill:url(#SVGID_00000153669466827356225870000011926983397093260173_);}
</style>
<g>
	<linearGradient id="SVGID_1_" gradientUnits="userSpaceOnUse" x1="249.6702" y1="82.0647" x2="249.6702" y2="275.0952">
		<stop  offset="0.1187" style="stop-color:#6EBA72"/>
		<stop  offset="0.306" style="stop-color:#6BB76F"/>
		<stop  offset="0.4602" style="stop-color:#62AB67"/>
		<stop  offset="0.6028" style="stop-color:#549959"/>
		<stop  offset="0.7383" style="stop-color:#418248"/>
		<stop  offset="0.8689" style="stop-color:#2C6735"/>
		<stop  offset="0.994" style="stop-color:#144A24"/>
		<stop  offset="1" style="stop-color:#134923"/>
	</linearGradient>
	<path class="st0" d="M480.4,185.6c0.1-2.2,0.2-4.4,0.2-6.7c0-9.7-1.4-19.3-4.2-28.7c-0.3-1-0.6-2.1-1-3.1
		c-1.7-5.2-3.8-10.3-6.4-15.2c-1.9-3.6-4-7.1-6.3-10.5c-3.8-5.6-8.2-10.8-13.1-15.5c-13.9-13.5-31.5-23-50.9-27.7
		c-1.2-0.3-2.4-0.6-3.7-0.8c-0.4-0.1-0.8-0.2-1.2-0.2c-0.8-0.2-1.7-0.3-2.5-0.5c-0.5-0.1-1-0.2-1.5-0.2c-0.8-0.1-1.5-0.2-2.3-0.4
		c-0.5-0.1-1-0.1-1.6-0.2c-0.8-0.1-1.5-0.2-2.3-0.3c-0.5-0.1-1.1-0.1-1.6-0.2c-0.8-0.1-1.5-0.1-2.3-0.2c-0.5,0-1.1-0.1-1.6-0.1
		c-0.8,0-1.6-0.1-2.3-0.1c-0.5,0-1,0-1.5-0.1c-0.8,0-1.7,0-2.5-0.1c-0.4,0-0.9,0-1.3,0c-1.3,0-2.5,0-3.8,0c-1.9,0.1-3.8,0.2-5.7,0.3
		c-7.6,0.6-15.1,2-22.4,4c-5.5,1.5-10.8,3.5-16,5.8c-2.7,1.2-5.3,2.6-7.9,4.1c-1.3,0.7-2.5,1.5-3.7,2.3c-3.3,2.1-6.6,4.5-9.8,7
		c-3.9,3.1-7.8,6.5-11.8,10.2c-1.6,1.5-3.1,3-4.7,4.5l-0.2,0.2c-0.1,0.1-0.1,0.1-0.2,0.2c-2.9,2.8-5.7,5.5-8.3,8.2
		c-3.6,3.7-7.1,7.4-10.6,11.2c-2.7,2.9-5.3,5.9-7.9,8.9c-1.6,1.9-3.2,3.7-4.8,5.6c-0.8,1-1.6,1.9-2.4,2.9c-0.4,0.5-0.8,0.9-1.2,1.4
		c-0.2,0.2-1,1-1,1.2c-1.7,2-3.4,4-5,6c-2,2.3-4,4.7-5.9,7c-1.9,2.3-3.8,4.5-5.8,6.8c-1.5,1.8-3,3.5-4.5,5.3
		c-0.7,0.8-1.4,1.7-2.1,2.5c0,0,0,0-0.1,0.1c-1.6,1.9-3.3,3.9-4.9,5.9c-3.1,3.8-6.3,7.6-9.6,11.4c-1.6,1.9-3.3,3.8-4.9,5.6
		c-4.1,4.7-8.4,9.2-12.9,13.5c-4.5,4.3-9.1,8.4-14,12.1c-0.8,0.6-1.7,1.2-2.5,1.8c-1.7,1.2-3.4,2.3-5,3.4c-4.2,2.7-8.4,4.9-12.6,6.7
		c-0.8,0.4-1.7,0.7-2.5,1.1c-1.7,0.7-3.4,1.3-5.1,1.8c-4.3,1.4-8.6,2.3-13,2.9c-1.1,0.1-2.2,0.3-3.4,0.4c-0.3,0-0.6,0-0.9,0.1
		c-1,0.1-1.9,0.1-2.9,0.2c-0.2,0-0.4,0-0.5,0c-0.9,0-1.9,0.1-2.8,0.1c-0.2,0-0.3,0-0.5,0c-0.4,0-0.8,0-1.2,0c-0.8,0-1.5,0-2.3-0.1
		c-0.4,0-0.8,0-1.3-0.1c-0.8,0-1.5-0.1-2.3-0.2c-0.4,0-0.8-0.1-1.2-0.1c-0.9-0.1-1.7-0.2-2.6-0.3c-0.3,0-0.5-0.1-0.8-0.1
		c-1.1-0.2-2.2-0.4-3.3-0.6c-0.3-0.1-0.5-0.1-0.8-0.2c-0.8-0.2-1.7-0.4-2.5-0.6c-0.4-0.1-0.8-0.2-1.1-0.3c-0.7-0.2-1.4-0.4-2.1-0.6
		c-0.4-0.1-0.8-0.2-1.2-0.3c-0.7-0.2-1.4-0.4-2.1-0.7c-0.4-0.1-0.7-0.2-1.1-0.4c-0.9-0.3-1.7-0.6-2.6-1c-0.2-0.1-0.3-0.1-0.5-0.2
		c-1-0.4-2-0.9-3-1.3c-0.3-0.1-0.6-0.3-0.9-0.4c-0.7-0.3-1.4-0.7-2.1-1c-0.3-0.2-0.7-0.4-1-0.6c-0.6-0.3-1.2-0.7-1.8-1
		c-0.3-0.2-0.7-0.4-1-0.6c-0.6-0.4-1.3-0.8-1.9-1.2c-0.3-0.2-0.6-0.4-0.9-0.6c-0.9-0.6-1.8-1.2-2.6-1.9c-0.9-0.7-1.7-1.3-2.6-2
		c-5-4.2-9.5-9.1-13.1-14.5c-5.5-8.1-9.2-17.2-10.9-26.6c-0.4-2.5-0.7-5-0.8-7.5c-0.1-2.5-0.1-5,0-7.5c0.1-1.3,0.2-2.5,0.3-3.7
		c0.9-7.5,3-14.8,6.3-21.7c1.6-3.4,3.6-6.8,5.8-9.9c1.5-2.1,3.1-4.1,4.8-6.1c0.8-0.9,1.6-1.8,2.5-2.6c0.3-0.3,0.6-0.5,0.8-0.8
		c0.6-0.6,1.2-1.1,1.8-1.7c0.3-0.3,0.7-0.6,1-0.9c0.6-0.5,1.1-1,1.7-1.5c0.4-0.3,0.7-0.6,1.1-0.9c0.6-0.5,1.2-0.9,1.8-1.4
		c0.4-0.3,0.7-0.5,1.1-0.8c0.7-0.5,1.3-0.9,2-1.3c0.3-0.2,0.7-0.4,1-0.6c1-0.6,1.9-1.2,2.9-1.7c0.1,0,0.1-0.1,0.2-0.1
		c1.1-0.6,2.1-1.1,3.2-1.7c0.3-0.2,0.7-0.3,1-0.5c0.8-0.4,1.5-0.7,2.3-1c0.4-0.2,0.8-0.3,1.2-0.5c0.7-0.3,1.4-0.6,2.1-0.8
		c0.4-0.2,0.9-0.3,1.3-0.5c0.7-0.2,1.4-0.5,2.2-0.7c0.4-0.1,0.9-0.3,1.3-0.4c0.8-0.2,1.5-0.4,2.3-0.6c0.4-0.1,0.8-0.2,1.2-0.3
		c1-0.3,2.1-0.5,3.1-0.7c0.1,0,0.3-0.1,0.4-0.1c1.2-0.2,2.4-0.4,3.6-0.6c0.4-0.1,0.7-0.1,1.1-0.1c0.8-0.1,1.7-0.2,2.5-0.3
		c0.5,0,0.9-0.1,1.4-0.1c0.8-0.1,1.5-0.1,2.3-0.2c0.5,0,1,0,1.4-0.1c0.8,0,1.5,0,2.3-0.1c0.3,0,0.6,0,0.9,0c0.2,0,0.5,0,0.7,0
		c0.4,0,0.8,0,1.2,0c0.7,0,1.3,0,2,0.1c0.4,0,0.8,0,1.1,0.1c0.7,0,1.5,0.1,2.2,0.2c0.3,0,0.6,0,0.9,0.1c1,0.1,2.1,0.2,3.1,0.4
		c0.1,0,0.2,0,0.4,0.1c0.9,0.1,1.8,0.3,2.7,0.4c0.3,0.1,0.7,0.1,1,0.2c0.7,0.1,1.4,0.3,2.1,0.4c0.4,0.1,0.7,0.2,1.1,0.3
		c0.7,0.2,1.3,0.3,2,0.5c0.4,0.1,0.7,0.2,1.1,0.3c0.7,0.2,1.4,0.4,2.1,0.6c0.3,0.1,0.6,0.2,0.9,0.3c1,0.3,2,0.7,3,1.1
		c0.1,0,0.1,0,0.2,0.1c0.9,0.4,1.8,0.7,2.7,1.1c0.3,0.1,0.6,0.3,0.9,0.4c0.7,0.3,1.3,0.6,1.9,0.9c0.4,0.2,0.7,0.3,1,0.5
		c0.6,0.3,1.2,0.6,1.8,0.9c0.3,0.2,0.7,0.4,1,0.6c0.6,0.4,1.3,0.7,1.9,1.1c0.3,0.2,0.6,0.3,0.9,0.5c0.9,0.6,1.8,1.1,2.7,1.7
		c3.1,2.1,6.1,4.4,9.3,7.2c1.4,1.2,2.8,2.5,4.3,3.7c0.1,0.1,0.3,0.3,0.4,0.4c1.4,1.2,2.7,2.5,4.1,3.8c0.2,0.2,0.4,0.3,0.6,0.5
		c1.4,1.3,2.8,2.6,4.1,4c0.2,0.2,0.3,0.3,0.5,0.5c1.4,1.4,2.9,2.8,4.3,4.3c0.1,0.1,0.1,0.1,0.2,0.2c6.2,6.3,12.6,13.2,19.2,20.9
		c0,0,23.5-27.9,23.5-27.9c-0.4-0.4-0.8-0.8-1.1-1.3c-0.2-0.2-0.3-0.4-0.5-0.5c-0.6-0.7-1.2-1.4-1.9-2.1c-0.3-0.3-0.6-0.6-0.9-1
		c-0.3-0.4-0.7-0.8-1.1-1.1c-0.5-0.5-1-1.1-1.5-1.6c-0.3-0.3-0.6-0.6-0.8-0.9c-0.7-0.8-1.5-1.6-2.3-2.4c-0.2-0.3-0.5-0.5-0.7-0.8
		c-0.9-1-1.8-1.9-2.8-3l-1.1-1.1c-2.2-2.3-4.3-4.5-6.5-6.6c-2.1-2.1-4.2-4.1-6.2-6c-1-1-2-1.9-3.1-2.8c-3-2.7-6-5.2-8.9-7.6
		c-15.2-12.1-32.1-20.2-49.6-24.1c-8-1.8-16-2.7-24.2-2.7c-5,0-9.9,0.3-14.9,1c-45.3,6.3-82.2,39.6-91.8,83.1
		c-4.6,20.7-2.8,41.8,4.8,59.4c1.2,2.7,2.4,5.3,3.8,7.9c0.7,1.3,1.4,2.6,2.2,3.8c3.8,6.3,8.3,12.3,13.3,17.8c3,3.3,6.3,6.4,9.7,9.4
		c5.7,4.9,11.8,9.2,18.4,12.8c1.3,0.7,2.7,1.4,4,2.1s2.7,1.3,4.1,1.9c1.5,0.7,3.1,1.3,4.6,1.9c0.3,0.1,0.6,0.2,0.9,0.4
		c1.5,0.6,3,1.1,4.6,1.6c0.3,0.1,0.6,0.2,0.8,0.3c1.5,0.5,3,0.9,4.5,1.3c0.2,0,0.3,0.1,0.5,0.1c1.6,0.4,3.2,0.8,4.8,1.1
		c0.3,0.1,0.7,0.1,1,0.2c1.6,0.3,3.2,0.6,4.9,0.9c0.2,0,0.4,0.1,0.6,0.1c1.5,0.2,3.1,0.4,4.6,0.6c0.3,0,0.6,0.1,0.8,0.1
		c1.6,0.2,3.3,0.3,4.9,0.4c0.3,0,0.7,0,1,0c1.7,0.1,3.4,0.1,5.1,0.1c0.2,0,0.3,0,0.5,0c1.1,0,2.3,0,3.4-0.1c0.4,0,0.9,0,1.3-0.1
		c0.9,0,1.7-0.1,2.6-0.1c0.5,0,1-0.1,1.5-0.1c0.8-0.1,1.6-0.1,2.5-0.2c0.5,0,1-0.1,1.5-0.2c0.9-0.1,1.7-0.2,2.6-0.3
		c0.4-0.1,0.9-0.1,1.3-0.2c1.1-0.2,2.2-0.3,3.3-0.5c0.2,0,0.4-0.1,0.6-0.1c1.3-0.2,2.6-0.5,3.9-0.7c0.4-0.1,0.8-0.2,1.2-0.3
		c0.9-0.2,1.8-0.4,2.7-0.6c0.5-0.1,1-0.2,1.4-0.4c0.8-0.2,1.6-0.4,2.4-0.7c0.5-0.1,1-0.3,1.5-0.4c0.8-0.2,1.6-0.5,2.4-0.7
		c0.5-0.1,0.9-0.3,1.4-0.4c0.9-0.3,1.8-0.6,2.8-0.9c0.3-0.1,0.7-0.2,1-0.4c1.3-0.5,2.5-0.9,3.7-1.4c0.3-0.1,0.5-0.2,0.8-0.3
		c1-0.4,1.9-0.8,2.9-1.2c0.4-0.2,0.9-0.4,1.3-0.6c0.8-0.4,1.6-0.7,2.4-1.1c0.5-0.2,0.9-0.4,1.4-0.7c0.8-0.4,1.5-0.8,2.3-1.2
		c0.5-0.2,0.9-0.5,1.4-0.7c0.8-0.4,1.6-0.9,2.4-1.3c0.4-0.2,0.8-0.4,1.2-0.6c1.2-0.7,2.4-1.4,3.5-2.1c6.7-4.2,13-9.1,19-14.6
		c2-1.8,3.9-3.7,5.9-5.6c7.7-7.6,14.9-15.9,21.9-24c3.1-3.6,6.3-7.2,9.4-10.7l1.2-1.4c0.2-0.2,0.5-0.5,0.9-1
		c0.2-0.2,0.4-0.5,0.7-0.8c0.2-0.2,0.3-0.4,0.5-0.6c0.3-0.3,0.6-0.7,0.9-1c0.3-0.4,0.6-0.7,1-1.2c0.3-0.3,0.5-0.6,0.8-0.9
		c0.4-0.4,0.8-0.9,1.2-1.3c0.3-0.3,0.6-0.6,0.8-1c1.2-1.3,2.4-2.8,3.7-4.4c0.5-0.6,1-1.2,1.6-1.8c1-1.2,2-2.4,3.1-3.6
		c0.5-0.6,1.1-1.3,1.6-1.9c3.6-4.2,7.2-8.4,10.3-12.1c12.1-14.4,24.1-28.4,37.7-40.9c14.4-13.2,28-20.9,42.8-24.1
		c1.3-0.3,2.5-0.5,3.8-0.7c0.4-0.1,0.8-0.1,1.2-0.2c0.9-0.1,1.7-0.2,2.6-0.3c0.5-0.1,1-0.1,1.4-0.1c0.8-0.1,1.6-0.1,2.4-0.2
		c0.5,0,1-0.1,1.5-0.1c0.8,0,1.6-0.1,2.4-0.1c0.3,0,0.6,0,0.9,0c0.2,0,0.5,0,0.7,0c0.4,0,0.8,0,1.3,0c0.7,0,1.3,0,2,0.1
		c0.4,0,0.8,0,1.2,0.1c0.7,0,1.4,0.1,2.1,0.2c0.4,0,0.8,0.1,1.1,0.1c0.8,0.1,1.7,0.2,2.5,0.3c0.2,0,0.5,0.1,0.7,0.1
		c1.1,0.2,2.1,0.3,3.1,0.5c0.3,0.1,0.5,0.1,0.8,0.2c0.8,0.2,1.5,0.3,2.3,0.5c0.4,0.1,0.7,0.2,1.1,0.3c0.7,0.2,1.3,0.3,2,0.5
		c0.4,0.1,0.8,0.2,1.1,0.3c0.6,0.2,1.3,0.4,1.9,0.6c0.4,0.1,0.7,0.2,1.1,0.4c0.7,0.2,1.3,0.5,2,0.7c0.3,0.1,0.6,0.2,1,0.4
		c0.8,0.3,1.6,0.7,2.4,1c0.1,0.1,0.3,0.1,0.4,0.2c1,0.4,1.9,0.9,2.8,1.3c0.2,0.1,0.5,0.2,0.7,0.3c0.7,0.4,1.4,0.7,2.1,1.1
		c0.3,0.2,0.6,0.3,0.9,0.5c0.6,0.3,1.2,0.7,1.8,1c0.3,0.2,0.7,0.4,1,0.6c0.6,0.4,1.1,0.7,1.7,1.1c0.3,0.2,0.6,0.4,0.9,0.6
		c0.6,0.4,1.2,0.8,1.7,1.2c0.3,0.2,0.5,0.4,0.8,0.6c0.7,0.6,1.5,1.1,2.2,1.7c0.1,0.1,0.2,0.1,0.2,0.2c0.8,0.7,1.6,1.3,2.4,2
		c0.2,0.2,0.4,0.4,0.6,0.5c0.6,0.5,1.1,1,1.7,1.5c0.3,0.2,0.5,0.5,0.8,0.8c0.5,0.5,0.9,1,1.4,1.4c0.3,0.3,0.5,0.6,0.8,0.8
		c0.4,0.5,0.9,1,1.3,1.5c0.2,0.3,0.5,0.6,0.7,0.9c0.5,0.5,0.9,1.1,1.3,1.6c0.2,0.3,0.4,0.5,0.6,0.8c0.6,0.8,1.2,1.5,1.7,2.3
		c0,0,0.1,0.1,0.1,0.1c0.6,0.8,1.2,1.7,1.7,2.6c0.2,0.3,0.3,0.5,0.5,0.8c0.4,0.6,0.7,1.2,1.1,1.9c0.2,0.3,0.4,0.7,0.5,1
		c0.3,0.6,0.6,1.2,0.9,1.8c0.2,0.4,0.4,0.7,0.5,1.1c0.3,0.6,0.6,1.2,0.8,1.8c0.2,0.4,0.3,0.7,0.5,1.1c0.3,0.7,0.5,1.3,0.8,2
		c0.1,0.3,0.2,0.6,0.4,0.9c0.4,1,0.7,2,1,3c1.8,5.7,2.8,11.5,3,17.5c0,0.8,0,1.7,0,2.6c0,16.7-6.6,32.5-17.5,44.7
		c-1.3,1.4-2.6,2.8-4,4.2c-2.8,2.7-5.9,5.1-9.1,7.3c-7.3,5-15.6,8.7-24.7,10.7c-1.5,0.3-3,0.6-4.6,0.9c-0.5,0.1-1,0.1-1.5,0.2
		c-1,0.2-2,0.3-3.1,0.4c-0.6,0.1-1.2,0.1-1.9,0.2c-0.9,0.1-1.8,0.2-2.8,0.2c-0.7,0-1.3,0-2,0.1c-0.9,0-1.8,0.1-2.6,0.1
		c-0.1,0-0.1,0-0.2,0c-0.8,0-1.6,0-2.4-0.1c-0.6,0-1.3,0-1.9-0.1c-0.9,0-1.8-0.1-2.7-0.2c-0.6-0.1-1.2-0.1-1.8-0.1
		c-1-0.1-1.9-0.3-2.9-0.4c-0.5-0.1-1-0.1-1.5-0.2c-1.4-0.2-2.8-0.5-4.2-0.8c0,0-0.1,0-0.1,0c-2.7-0.6-5.5-1.5-8.2-2.5
		c-0.9-0.3-1.8-0.7-2.7-1.1c-7.3-3-14.5-7.4-21.9-13.3c-0.9-0.7-1.8-1.5-2.8-2.3c-1.8-1.5-3.7-3.2-5.5-4.9c-0.9-0.9-1.9-1.8-2.8-2.7
		c-3.2-3.1-6.2-6.3-9.2-9.5c-2.9-3.2-5.7-6.4-8.4-9.5c-0.2-0.3-0.9-1-1.7-1.9c-0.3-0.3-0.5-0.6-0.8-0.9c-0.2-0.3-0.5-0.6-0.8-0.9
		c0,0-0.1-0.1-0.1-0.1c-1.8-2.1-4.1-4.6-6.2-7.1l-23.5,27.2c0.5,0.6,1.1,1.3,1.6,1.9c0.2,0.2,0.3,0.4,0.5,0.6
		c0.5,0.5,0.9,1.1,1.4,1.6c0.2,0.3,0.5,0.6,0.7,0.8c0.4,0.5,0.9,1,1.3,1.5c0.3,0.3,0.6,0.7,0.9,1c0.4,0.5,0.8,0.9,1.2,1.4
		c0.3,0.4,0.6,0.7,1,1.1c0.4,0.4,0.8,0.9,1.2,1.3c0.3,0.4,0.7,0.7,1,1.1c0.4,0.4,0.8,0.9,1.2,1.3c0.4,0.4,0.7,0.8,1.1,1.1
		c0.4,0.4,0.8,0.9,1.2,1.3c0.4,0.4,0.7,0.8,1.1,1.2c0.4,0.4,0.8,0.8,1.2,1.3c0.4,0.4,0.8,0.8,1.2,1.2c0.4,0.4,0.8,0.8,1.2,1.2
		c0.4,0.4,0.8,0.8,1.2,1.2c0.4,0.4,0.8,0.8,1.2,1.2c0.4,0.4,0.8,0.8,1.3,1.2c0.4,0.4,0.8,0.8,1.2,1.1c0.4,0.4,0.9,0.8,1.3,1.3
		c0.4,0.4,0.8,0.7,1.1,1.1c0.5,0.5,1,0.9,1.5,1.4c0.3,0.3,0.7,0.6,1,1c0.6,0.6,1.2,1.1,1.8,1.7c0.2,0.2,0.5,0.4,0.7,0.6
		c0.9,0.8,1.7,1.5,2.6,2.2c0.3,0.2,0.5,0.5,0.8,0.7c0.6,0.5,1.2,1,1.8,1.5c0.4,0.3,0.7,0.6,1.1,0.9c0.5,0.4,1.1,0.9,1.6,1.3
		c0.4,0.3,0.8,0.6,1.2,0.9c0.5,0.4,1,0.8,1.6,1.2c0.4,0.3,0.8,0.6,1.2,0.9c0.5,0.4,1,0.8,1.6,1.2c0.4,0.3,0.8,0.6,1.3,0.9
		c0.5,0.4,1,0.7,1.6,1.1c0.4,0.3,0.9,0.6,1.3,0.9c0.5,0.4,1.1,0.7,1.6,1.1c0.4,0.3,0.9,0.6,1.3,0.9c0.5,0.3,1.1,0.7,1.6,1
		c0.4,0.3,0.9,0.6,1.4,0.8c0.5,0.3,1.1,0.6,1.6,1c0.5,0.3,0.9,0.5,1.4,0.8c0.6,0.3,1.1,0.6,1.7,0.9c0.5,0.3,0.9,0.5,1.4,0.7
		c0.6,0.3,1.1,0.6,1.7,0.9c0.5,0.2,0.9,0.5,1.4,0.7c0.6,0.3,1.2,0.6,1.7,0.8c0.5,0.2,0.9,0.4,1.4,0.7c0.6,0.3,1.2,0.5,1.8,0.8
		c0.5,0.2,0.9,0.4,1.4,0.6c0.6,0.3,1.2,0.5,1.9,0.8c0.5,0.2,0.9,0.4,1.4,0.5c0.7,0.2,1.3,0.5,2,0.7c0.4,0.2,0.9,0.3,1.3,0.5
		c0.7,0.3,1.5,0.5,2.2,0.7c0.4,0.1,0.7,0.2,1.1,0.4c1.1,0.3,2.3,0.7,3.4,1c1.2,0.3,2.5,0.6,3.7,0.9c8.6,2,17.3,2.9,25.9,2.9
		c3.5,0,7-0.2,10.5-0.5c2.3-0.2,4.6-0.5,6.9-0.8c2.3-0.4,4.5-0.8,6.8-1.3c15.7-3.4,30.5-10.1,43.3-19.8c1.8-1.4,3.6-2.8,5.4-4.3
		c3.5-3,6.8-6.2,9.9-9.7c0.8-0.9,1.5-1.7,2.3-2.6c3-3.6,5.8-7.3,8.4-11.3c0.3-0.4,0.5-0.8,0.8-1.2l0.3-0.5c2.3-3.7,4.3-7.6,6-11.5
		c1.8-4.2,3.4-8.4,4.6-12.8c0.5-1.6,0.9-3.3,1.3-5c0.6-2.4,1-4.9,1.4-7.4C479.9,191.6,480.2,188.6,480.4,185.6z"/>
	
		<linearGradient id="SVGID_00000181057851901974256430000008092468540083833985_" gradientUnits="userSpaceOnUse" x1="249.6053" y1="256.3828" x2="249.6053" y2="340.2945">
		<stop  offset="0" style="stop-color:#6EBA72"/>
		<stop  offset="0.5351" style="stop-color:#37753F"/>
		<stop  offset="1" style="stop-color:#134923"/>
	</linearGradient>
	<path style="fill:url(#SVGID_00000181057851901974256430000008092468540083833985_);" d="M287.6,267.7c-13,12-25.9,22.6-37.9,31.8
		c-13.7-10.4-26.3-21-37.9-31.7c-4.6,3.8-9.4,7.3-14.5,10.5c-4.8,3-9.7,5.6-14.8,7.9c17,16.5,36.2,32.5,57.6,48l9.8,7.1l9.7-7.3
		c17.1-12.8,37.1-28.6,56.9-47.6C306.1,281.3,296.4,274.8,287.6,267.7z"/>
	<g>
		
			<linearGradient id="SVGID_00000041267002678883483910000008171397614745402500_" gradientUnits="userSpaceOnUse" x1="249.8767" y1="16.5275" x2="249.8767" y2="105.8045">
			<stop  offset="0" style="stop-color:#6EBA72"/>
			<stop  offset="0.1415" style="stop-color:#68B26C"/>
			<stop  offset="0.35" style="stop-color:#579D5C"/>
			<stop  offset="0.6" style="stop-color:#3E7E45"/>
			<stop  offset="0.8798" style="stop-color:#20582D"/>
			<stop  offset="1" style="stop-color:#134923"/>
		</linearGradient>
		<path style="fill:url(#SVGID_00000041267002678883483910000008171397614745402500_);" d="M111.3,64.2c5.5-0.8,11.2-1.2,16.8-1.2
			c6.2,0,12.4,0.5,18.5,1.4c3.7-4.1,7.7-7.5,12.1-10.3c7.8-4.9,16.1-7.3,24.6-7.3c17.8,0,36.6,10.7,53.9,31.5l12.7,15.2l12.7-15.2
			c25.5-30.6,54.2-39.4,78.5-24.1c4.3,2.7,8.4,6.2,12,10.2c4.5-0.6,9.1-1,13.6-1.1c1.3,0,2.6-0.1,3.9-0.1c7.6,0,15.4,0.7,22.9,1.9
			c-8.6-17.1-20.9-30.8-34.9-39.5C331.2,8.4,289.6,5.2,249.9,43C210.1,5.2,168.5,8.4,141.1,25.6c-14,8.8-26.3,22.5-34.9,39.5
			C107.9,64.8,109.6,64.5,111.3,64.2z"/>
	</g>
	<g>
		<g>
			<path class="st3" d="M338,212.3c5.5-1,16.7-3.4,28.4-7.7l9.1-11.7l-36.2,12.3c-2.4,0.8-4.1,2.7-4.4,4.8l0,0
				C334.7,211.4,336.3,212.6,338,212.3z"/>
			<path class="st3" d="M337.9,201.7c5.3-0.7,16-2.5,27.3-6.1l9.3-10.7l-35,10.2c-2.3,0.7-4.1,2.4-4.5,4.3l0,0
				C334.8,200.8,336.2,201.9,337.9,201.7z"/>
			<path class="st3" d="M347.3,190.9c5.3-0.7,16-2.5,27.3-6.1l9.3-10.7l-35,10.2c-2.3,0.7-4.1,2.4-4.5,4.3l0,0
				C344.2,190,345.6,191.1,347.3,190.9z"/>
			<polygon class="st3" points="366.9,173.1 358.5,192.7 365.7,202.7 378.7,195.5 381.4,174 			"/>
		</g>
		<g>
			
				<linearGradient id="SVGID_00000101091946165878087250000012213397342939694005_" gradientUnits="userSpaceOnUse" x1="351.9061" y1="203.3124" x2="398.6416" y2="128.643">
				<stop  offset="0.1187" style="stop-color:#6EBA72"/>
				<stop  offset="0.306" style="stop-color:#6BB76F"/>
				<stop  offset="0.4602" style="stop-color:#62AB67"/>
				<stop  offset="0.6028" style="stop-color:#549959"/>
				<stop  offset="0.7383" style="stop-color:#418248"/>
				<stop  offset="0.8689" style="stop-color:#2C6735"/>
				<stop  offset="0.994" style="stop-color:#144A24"/>
				<stop  offset="1" style="stop-color:#134923"/>
			</linearGradient>
			<path style="fill:url(#SVGID_00000101091946165878087250000012213397342939694005_);" d="M404.6,134.7
				c-9.1-6.4-20.3-10.3-32.1-10.9c0.1,1.6,0.1,3.2,0.1,4.5c-0.1,8.5,0,11.6-0.7,19.5c-0.2,2.1-0.5,4.4,0.1,6.5c-3.1,2-7.9,6-10,12.6
				l-9.4,27.5c-0.8,2.4,0.7,4.9,3.6,5.6c2.9,0.7,5.8-0.7,7-3.1l7.2-12.6c0,0,1.5-1.4,3.7-3.7l-0.2,8.4c0.1,1.2-0.3,2.4-1,3.5
				l-2.4,3.5c-0.5,0.7-1.1,1.3-1.9,1.8l-26,17.5c0,0-7.5,5.1-2.9,10.2c0.5,0.5,1.3,0.6,2,0.2l35.7-22c0,0,9.8-6,13.1-17.6
				c2.1-7.6,4.3-18.9,5.6-25.9c2.2-3.1,7-17.7,7.4-19.3C403.9,138.5,404.3,136.5,404.6,134.7z"/>
			<g>
				<path class="st3" d="M371.7,185.2c-0.5-0.1-1-0.2-1.4-0.4c0,0-0.1,0-0.1-0.1c0,0,0-0.1,0-0.1c0.3-0.6,0.4-1.4,0.9-1.9
					c1-1.1,2-2.3,3-3.5c1.1-1.5,2.1-3,2.9-4.6c0.8-1.5,1.7-3.3,1.8-5c-0.1,1.2,0.5,2.4,0.4,3.7c-0.1,1.7-1,3.5-2,5
					c-0.7,1.1-1.5,2.1-2.2,3.1c-0.7,0.9-0.9,1.7-1.2,2.8c-0.1,0.2-0.1,0.4-0.2,0.7c-0.1,0.1-0.1,0.3-0.3,0.4
					c-0.2,0.1-0.5,0.1-0.7,0.1C372.3,185.3,372,185.2,371.7,185.2z"/>
			</g>
		</g>
	</g>
	<g>
		<g>
			<path class="st3" d="M160.9,212.3c-5.5-1-16.7-3.4-28.4-7.7l-9.1-11.7l36.2,12.3c2.4,0.8,4.1,2.7,4.4,4.8l0,0
				C164.3,211.4,162.7,212.6,160.9,212.3z"/>
			<path class="st3" d="M161,201.7c-5.3-0.7-16-2.5-27.3-6.1l-9.3-10.7l35,10.2c2.3,0.7,4.1,2.4,4.5,4.3l0,0
				C164.2,200.8,162.8,201.9,161,201.7z"/>
			<path class="st3" d="M151.7,190.9c-5.3-0.7-16-2.5-27.3-6.1l-9.3-10.7l35,10.2c2.3,0.7,4.1,2.4,4.5,4.3l0,0
				C154.8,190,153.4,191.1,151.7,190.9z"/>
			<polygon class="st3" points="132.1,173.1 140.5,192.7 133.3,202.7 120.3,195.5 117.6,174 			"/>
		</g>
		<g>
			
				<linearGradient id="SVGID_00000086684889309634995160000005443071235145364368_" gradientUnits="userSpaceOnUse" x1="-1056.6937" y1="203.3124" x2="-1009.9582" y2="128.643" gradientTransform="matrix(-1 0 0 1 -909.6125 0)">
				<stop  offset="0.1187" style="stop-color:#6EBA72"/>
				<stop  offset="0.306" style="stop-color:#6BB76F"/>
				<stop  offset="0.4602" style="stop-color:#62AB67"/>
				<stop  offset="0.6028" style="stop-color:#549959"/>
				<stop  offset="0.7383" style="stop-color:#418248"/>
				<stop  offset="0.8689" style="stop-color:#2C6735"/>
				<stop  offset="0.994" style="stop-color:#144A24"/>
				<stop  offset="1" style="stop-color:#134923"/>
			</linearGradient>
			<path style="fill:url(#SVGID_00000086684889309634995160000005443071235145364368_);" d="M94.4,134.7
				c9.1-6.4,20.3-10.3,32.1-10.9c-0.1,1.6-0.1,3.2-0.1,4.5c0.1,8.5,0,11.6,0.7,19.5c0.2,2.1,0.5,4.4-0.1,6.5c3.1,2,7.9,6,10,12.6
				l9.4,27.5c0.8,2.4-0.7,4.9-3.6,5.6c-2.9,0.7-5.8-0.7-7-3.1l-7.2-12.6c0,0-1.5-1.4-3.7-3.7l0.2,8.4c-0.1,1.2,0.3,2.4,1,3.5
				l2.4,3.5c0.5,0.7,1.1,1.3,1.9,1.8l26,17.5c0,0,7.5,5.1,2.9,10.2c-0.5,0.5-1.3,0.6-2,0.2l-35.7-22c0,0-9.8-6-13.1-17.6
				c-2.1-7.6-4.3-18.9-5.6-25.9c-2.2-3.1-7-17.7-7.4-19.3C95.1,138.5,94.7,136.5,94.4,134.7z"/>
			<g>
				<path class="st3" d="M127.3,185.2c0.5-0.1,1-0.2,1.4-0.4c0,0,0.1,0,0.1-0.1c0,0,0-0.1,0-0.1c-0.3-0.6-0.4-1.4-0.9-1.9
					c-1-1.1-2-2.3-3-3.5c-1.1-1.5-2.1-3-2.9-4.6c-0.8-1.5-1.7-3.3-1.8-5c0.1,1.2-0.5,2.4-0.4,3.7c0.1,1.7,1,3.5,2,5
					c0.7,1.1,1.5,2.1,2.2,3.1c0.7,0.9,0.9,1.7,1.2,2.8c0.1,0.2,0.1,0.4,0.2,0.7c0.1,0.1,0.1,0.3,0.3,0.4c0.2,0.1,0.5,0.1,0.7,0.1
					C126.7,185.3,127,185.2,127.3,185.2z"/>
			</g>
		</g>
	</g>
</g>
</svg>
